<?xml version="1.0" standalone="no"?>
<!DOCTYPE svg PUBLIC "-//W3C//DTD SVG 20010904//EN"
 "http://www.w3.org/TR/2001/REC-SVG-20010904/DTD/svg10.dtd">
<svg version="1.0" xmlns="http://www.w3.org/2000/svg"
 width="1046.000000pt" height="502.000000pt" viewBox="0 0 1046.000000 502.000000"
 preserveAspectRatio="xMidYMid meet">
<metadata>
Created by potrace 1.15, written by Peter Selinger 2001-2017
</metadata>
<g transform="translate(0.000000,502.000000) scale(0.100000,-0.100000)"
fill="#000000" stroke="none">
<path d="M9167 4224 c-307 -56 -557 -236 -690 -499 -63 -125 -95 -307 -77
-438 30 -214 116 -378 279 -529 l69 -64 -64 -134 c-107 -222 -91 -231 177
-101 l185 90 59 -17 c90 -25 373 -24 475 2 276 71 490 234 614 467 67 127 90
218 90 369 0 184 -41 315 -144 464 -207 299 -601 457 -973 390z m280 -190
c202 -68 373 -384 373 -691 0 -226 -82 -400 -236 -499 -117 -75 -280 -86 -407
-26 -177 83 -287 283 -287 521 1 316 179 637 390 702 43 13 117 10 167 -7z"/>
<path d="M9217 3838 c-47 -36 -50 -198 -3 -198 25 0 39 30 40 87 1 62 19 82
36 38 17 -44 11 -159 -15 -327 -29 -184 -46 -343 -38 -364 3 -8 18 -14 33 -14
l27 0 6 138 c4 97 13 168 32 242 47 192 46 336 -2 384 -29 29 -87 36 -116 14z"/>
<path d="M2545 3669 c-82 -52 -121 -107 -161 -226 -62 -185 -64 -213 -76 -903
-8 -489 -8 -657 1 -733 34 -273 124 -460 284 -588 42 -34 56 -39 100 -39 71 0
97 -9 101 -34 2 -11 14 -73 26 -136 35 -187 76 -247 200 -302 87 -38 205 -24
229 28 34 75 1 118 -96 129 -78 8 -101 27 -125 107 -17 54 -58 248 -58 275 0
8 13 33 29 56 72 106 118 220 148 372 19 100 30 999 14 1225 -30 440 -124 671
-309 762 -59 29 -78 33 -162 36 -92 3 -96 2 -145 -29z m205 -159 c137 -71 199
-253 230 -680 18 -233 9 -1246 -11 -1320 -30 -109 -94 -200 -142 -200 -11 0
-28 -7 -38 -16 -44 -39 -148 27 -199 125 -34 67 -87 267 -105 401 -15 100 -18
192 -17 465 0 187 3 381 7 430 22 326 31 415 57 560 24 134 67 250 97 259 25
7 82 -4 121 -24z"/>
<path d="M6808 3655 c-3 -3 -30 -8 -61 -10 -53 -3 -128 -24 -168 -46 -24 -12
-50 -62 -46 -88 6 -41 27 -53 91 -49 l61 3 2 -35 c2 -33 3 -230 1 -520 -1
-108 9 -410 17 -535 1 -22 5 -89 9 -150 3 -60 9 -146 12 -190 10 -121 12 -168
19 -439 l6 -249 -25 -16 c-16 -11 -44 -16 -85 -15 -51 1 -65 -2 -86 -22 -48
-45 -28 -89 55 -120 36 -13 82 -17 237 -17 l191 1 36 27 c66 51 47 131 -36
151 -5 1 -34 2 -66 3 l-59 1 -6 293 c-3 160 -11 364 -16 452 -6 88 -16 241
-22 340 -6 99 -15 243 -20 320 -12 189 -23 677 -15 708 7 30 49 47 112 47 55
0 74 19 74 75 0 64 -33 85 -132 85 -41 0 -77 -2 -80 -5z"/>
<path d="M7303 3331 c-39 -25 -45 -67 -13 -96 23 -20 130 -44 203 -45 29 0 49
-5 52 -12 2 -7 11 -150 20 -318 18 -374 51 -941 65 -1110 5 -69 10 -186 10
-260 0 -74 3 -172 7 -218 5 -76 8 -84 34 -103 34 -24 67 -18 109 21 29 27 30
30 30 127 0 119 -24 544 -45 778 -56 651 -77 1041 -57 1071 5 8 27 8 82 0 89
-14 130 -6 159 30 26 33 27 65 2 95 -18 22 -30 25 -183 36 -89 6 -226 15 -303
18 -130 6 -142 5 -172 -14z"/>
<path d="M1719 2015 c-61 -16 -237 -101 -347 -166 -65 -40 -400 -258 -420
-274 -2 -2 -3 -49 -4 -106 0 -105 21 -265 68 -519 14 -74 32 -174 41 -221 9
-48 13 -94 10 -102 -3 -8 -24 -18 -46 -22 -63 -10 -165 -87 -197 -147 -32 -62
-7 -159 55 -211 17 -14 55 -31 84 -37 73 -17 153 6 193 53 80 95 81 184 3 670
-17 104 -28 195 -25 202 6 18 41 39 246 155 294 167 412 230 420 225 4 -2 10
-30 14 -62 4 -31 20 -113 37 -182 40 -167 69 -310 69 -342 0 -23 -9 -30 -62
-53 -94 -41 -127 -70 -161 -145 -26 -54 -31 -79 -32 -138 0 -62 3 -75 24 -97
33 -35 111 -59 172 -54 55 6 109 42 144 96 69 109 67 103 60 162 -24 218 -71
459 -125 640 -44 150 -97 431 -115 609 -3 36 -8 68 -10 71 -7 11 -44 9 -96 -5z
m62 -352 l4 -40 -135 -70 c-74 -38 -211 -117 -305 -175 -93 -58 -184 -112
-201 -121 l-30 -16 -16 63 -15 64 116 62 c64 35 172 93 241 130 69 38 170 93
225 122 110 60 110 60 116 -19z"/>
</g>
</svg>
