<svg xmlns="http://www.w3.org/2000/svg" xmlns:xlink="http://www.w3.org/1999/xlink" version="1.1" x="0px" y="0px" viewBox="0 0 64 80" style="enable-background:new 0 0 64 64;" xml:space="preserve"><g><path d="M24,19h-1.405c1.107-0.884,2.004-2.023,2.598-3.354C27.475,14.67,29,12.424,29,9.877V9c0-2.452-1.774-4.498-4.106-4.92   C24.477,2.316,22.889,1,21,1h-6.256c-2.036,0-3.95,0.793-5.441,2.283C7.817,4.769,7,6.739,7,8.831V11h1v1   c0,2.826,1.312,5.349,3.356,7H10c-4.963,0-9,4.038-9,9v10c0,3.309,2.691,6,6,6v19h20V44c3.309,0,6-2.691,6-6V28   C33,23.038,28.963,19,24,19z M16,46v11H9v-4.107c1.795-0.348,3.334-1.601,3.99-3.351l1.437-3.832C14.807,44.695,15,43.632,15,42.55   V42h4v0.55c0,1.082,0.193,2.146,0.573,3.159l1.437,3.834c0.657,1.749,2.196,3.002,3.99,3.35V57h-7V46H16z M19,40h-4V24.535l2-1.333   l2,1.333V40z M13.832,21.09L15.197,22l-1.365,0.91C13.5,23.131,13,22.866,13,22.465v-0.93C13,21.24,13.24,21,13.535,21   C13.642,21,13.744,21.031,13.832,21.09z M20.168,22.91L18.803,22l1.365-0.91C20.5,20.869,21,21.134,21,21.535v0.93   C21,22.866,20.5,23.131,20.168,22.91z M9,8.831c0-1.558,0.609-3.026,1.767-4.184C11.829,3.585,13.242,3,14.744,3H21   c1.103,0,2,0.897,2,2v1h1c1.654,0,3,1.346,3,3v0.877c0,1.505-0.779,2.857-2,3.624V11c0-2.206-1.794-4-4-4h-0.414l-0.293,0.293   C19.192,8.394,17.729,9,16.172,9H9V8.831z M10,12v-1h6.172c1.933,0,3.758-0.695,5.189-1.967C22.292,9.204,23,10.021,23,11v4.572   C21.753,17.658,19.475,19,17,19C13.141,19,10,15.86,10,12z M3,28c0-3.86,3.141-7,7-7h1.059C11.022,21.173,11,21.351,11,21.535v0.93   c0,1.214,0.859,2.229,2,2.476V42.55c0,0.841-0.15,1.668-0.446,2.458l-1.437,3.832c-0.363,0.969-1.159,1.7-2.117,2.005V26H7v12H3V28   z M3.556,40H7v2C5.526,42,4.25,41.19,3.556,40z M9,61v-2h7v2H9z M18,61v-2h7v2H18z M27,42v-2h3.444C29.75,41.19,28.474,42,27,42z    M31,38h-4V26h-2v24.844c-0.958-0.305-1.754-1.035-2.117-2.004l-1.437-3.834C21.15,44.218,21,43.391,21,42.55V24.941   c1.141-0.247,2-1.262,2-2.476v-0.93c0-0.184-0.022-0.362-0.059-0.535H24c3.859,0,7,3.14,7,7V38z"/><path d="M63,38V18H52.236c-1.238,0-2.389,0.484-3.236,1.319C48.152,18.484,47.002,18,45.764,18H35v20h13v23h-7v2h16v-2h-7V38H63z    M52.236,20H61v16H50V21.293C50.47,20.499,51.301,20,52.236,20z M37,20h8.764c0.935,0,1.766,0.499,2.236,1.293V28v8H37V20z"/><path d="M49,13c1.654,0,3-1.346,3-3V3.883l6-0.75v3.051C57.686,6.072,57.352,6,57,6c-1.654,0-3,1.346-3,3s1.346,3,3,3s3-1.346,3-3   V0.867l-10,1.25v5.067C49.686,7.072,49.352,7,49,7c-1.654,0-3,1.346-3,3S47.346,13,49,13z M57,10c-0.552,0-1-0.449-1-1s0.448-1,1-1   s1,0.449,1,1S57.552,10,57,10z M49,9c0.552,0,1,0.449,1,1s-0.448,1-1,1s-1-0.449-1-1S48.448,9,49,9z"/><path d="M45.658,24.211L42,22.382v5.802C41.686,28.072,41.352,28,41,28c-1.654,0-3,1.346-3,3s1.346,3,3,3s3-1.346,3-3v-5.382   L44.764,26C45.526,26.381,46,27.147,46,28h2C48,26.385,47.103,24.933,45.658,24.211z M41,32c-0.552,0-1-0.449-1-1s0.448-1,1-1   s1,0.449,1,1S41.552,32,41,32z"/></g><text x="0" y="79" fill="#000000" font-size="5px" font-weight="bold" font-family="'Helvetica Neue', Helvetica, Arial-Unicode, Arial, Sans-serif">Created by Eucalyp</text><text x="0" y="84" fill="#000000" font-size="5px" font-weight="bold" font-family="'Helvetica Neue', Helvetica, Arial-Unicode, Arial, Sans-serif">from the Noun Project</text></svg>